<svg version="1.1" xmlns="http://www.w3.org/2000/svg" xmlns:xlink="http://www.w3.org/2000/svg">
	<symbol id="logo" viewBox="0 0 144 30">
		<path d="M16.7965 2.8C16.7965 1.2536 18.0499 0 19.5959 0H25.1947C26.7407 0 27.994 1.2536 27.994 2.8V8.4C27.994 9.9464 26.7407 11.2 25.1947 11.2H19.5959C18.0499 11.2 16.7965 9.9464 16.7965 8.4V2.8Z" fill="#1551E5"/>
		<path d="M16.7965 19.6C16.7965 18.0536 18.0498 16.8 19.5959 16.8H25.1946C26.7407 16.8 27.994 18.0536 27.994 19.6V25.2C27.994 26.7464 26.7407 28 25.1946 28H19.5959C18.0498 28 16.7965 26.7464 16.7965 25.2V19.6Z" fill="#1551E5"/>
		<path d="M0.000244141 19.6C0.000244141 18.0536 1.25357 16.8 2.79962 16.8H8.39838C9.94443 16.8 11.1978 18.0536 11.1978 19.6V25.2C11.1978 26.7464 9.94443 28 8.39838 28H2.79962C1.25357 28 0.000244141 26.7464 0.000244141 25.2V19.6Z" fill="#1551E5"/>
		<path fill-rule="evenodd" clip-rule="evenodd" d="M16.7965 8.4C16.7965 9.9464 15.5432 11.2 13.9971 11.2C12.4511 11.2 11.1978 9.9464 11.1978 8.4C11.1978 9.9464 9.94445 11.2 8.39839 11.2C9.94445 11.2 11.1978 12.4536 11.1978 14C11.1978 15.5464 9.94443 16.8 8.39838 16.8L11.1978 19.6C11.1978 18.0536 12.4511 16.8 13.9971 16.8C15.5432 16.8 16.7965 18.0536 16.7965 19.6L19.5959 16.8C18.0498 16.8 16.7965 15.5464 16.7965 14C16.7965 12.4536 18.0498 11.2 19.5959 11.2L16.7965 8.4Z" fill="#1551E5"/>
		<path d="M8.39839 0H2.79964C1.25358 0 0.000257809 1.2536 0.000257809 2.8V8.4C0.000257809 9.9464 1.25358 11.2 2.79964 11.2H8.39839L11.1978 8.4V2.8C11.1978 1.2536 9.94445 0 8.39839 0Z" fill="#1551E5"/>
		<path d="M11.1978 8.4C11.1978 9.9464 9.94445 11.2 8.39839 11.2L11.1978 8.4Z" fill="#1551E5"/>
		<path d="M52.964 10.8769C53.3384 10.7666 53.5407 10.3584 53.3707 10.007C51.9281 7.02397 48.9192 5.11328 45.3178 5.11328C42.7536 5.11328 40.6439 5.95355 38.9236 7.66641C37.2359 9.34695 36.392 11.4476 36.392 14.0007C36.392 16.5539 37.2359 18.6545 38.9236 20.3674C40.6439 22.0479 42.7536 22.8882 45.3178 22.8882C48.9192 22.8882 51.9281 20.9775 53.3707 17.9945C53.5407 17.6431 53.3384 17.2349 52.964 17.1246L50.1634 16.2991C49.8422 16.2045 49.505 16.3658 49.3319 16.6525C48.5035 18.0246 47.027 18.8484 45.3178 18.8484C43.987 18.8484 42.851 18.396 41.9422 17.4588C41.0334 16.5216 40.579 15.3904 40.579 14.0007C40.579 12.6111 41.0334 11.4799 41.9422 10.5427C42.851 9.60549 43.987 9.15304 45.3178 9.15304C47.027 9.15304 48.5035 9.97693 49.3319 11.3489C49.505 11.6357 49.8422 11.797 50.1634 11.7023L52.964 10.8769Z" fill="#171D45"/>
		<path d="M58.749 20.3674C60.4693 22.0479 62.579 22.8882 65.1432 22.8882C67.7073 22.8882 69.817 22.0479 71.5373 20.3674C73.2575 18.6545 74.1014 16.5539 74.1014 14.0007C74.1014 11.4476 73.2575 9.34695 71.5373 7.66641C69.817 5.95355 67.7073 5.11328 65.1432 5.11328C62.579 5.11328 60.4693 5.95355 58.749 7.66641C57.0612 9.34695 56.2174 11.4476 56.2174 14.0007C56.2174 16.5539 57.0612 18.6545 58.749 20.3674ZM61.7676 10.5427C62.6764 9.60549 63.8124 9.15304 65.1432 9.15304C66.4739 9.15304 67.6099 9.60549 68.5187 10.5427C69.4275 11.4799 69.8819 12.6111 69.8819 14.0007C69.8819 15.3904 69.4275 16.5216 68.5187 17.4588C67.6099 18.396 66.4739 18.8484 65.1432 18.8484C63.8124 18.8484 62.6764 18.396 61.7676 17.4588C60.8588 16.5216 60.4044 15.3904 60.4044 14.0007C60.4044 12.6111 60.8588 11.4799 61.7676 10.5427Z" fill="#171D45"/>
		<path d="M80.2717 22.4034C80.6404 22.4034 80.9393 22.1045 80.9393 21.7357V12.5141C80.9393 10.4781 82.4973 8.95913 84.4772 8.95913C86.4571 8.95913 87.9826 10.4781 87.9826 12.5141V21.7357C87.9826 22.1045 88.2815 22.4034 88.6502 22.4034H91.3721C91.7409 22.4034 92.0398 22.1045 92.0398 21.7357V12.5141C92.0398 10.4781 93.5977 8.95913 95.5776 8.95913C97.5575 8.95913 99.083 10.4781 99.083 12.5141V21.7357C99.083 22.1045 99.3819 22.4034 99.7506 22.4034H102.44C102.809 22.4034 103.108 22.1045 103.108 21.7357V11.3507C103.108 9.57317 102.459 8.08654 101.193 6.89077C99.9269 5.69501 98.3365 5.11328 96.3891 5.11328C94.4182 5.11328 92.829 5.7394 91.6591 7.01024C91.3158 7.38308 90.6867 7.38298 90.3447 7.00902C89.1831 5.739 87.6214 5.11328 85.6781 5.11328C84.0931 5.11328 82.7578 5.58964 81.6886 6.55892C81.4216 6.801 80.9393 6.62627 80.9393 6.26582C80.9393 5.89702 80.6404 5.59805 80.2717 5.59805H77.5498C77.1811 5.59805 76.8821 5.89702 76.8821 6.26582V21.7357C76.8821 22.1045 77.1811 22.4034 77.5498 22.4034H80.2717Z" fill="#171D45"/>
		<path d="M109.275 29.6751C109.644 29.6751 109.943 29.3761 109.943 29.0073V22.5391C109.943 21.9507 110.638 21.6085 111.152 21.895C112.332 22.5528 113.623 22.8883 115.039 22.8883C117.376 22.8883 119.323 22.048 120.914 20.3674C122.504 18.6546 123.283 16.5539 123.283 14.0008C123.283 11.4477 122.504 9.34698 120.914 7.66644C119.323 5.95358 117.376 5.11331 115.039 5.11331C113.346 5.11331 111.83 5.59324 110.47 6.53076C110.252 6.68101 109.943 6.53065 109.943 6.26585C109.943 5.89705 109.644 5.59808 109.275 5.59808H106.553C106.185 5.59808 105.886 5.89705 105.886 6.26585V29.0073C105.886 29.3761 106.185 29.6751 106.553 29.6751H109.275ZM117.733 10.5427C118.609 11.48 119.064 12.6111 119.064 14.0008C119.064 15.3905 118.609 16.5216 117.733 17.4588C116.856 18.396 115.785 18.8485 114.519 18.8485C113.254 18.8485 112.183 18.396 111.306 17.4588C110.43 16.5216 110.008 15.3905 110.008 14.0008C110.008 12.6111 110.43 11.48 111.306 10.5427C112.183 9.60552 113.254 9.15307 114.519 9.15307C115.785 9.15307 116.856 9.60552 117.733 10.5427Z" fill="#171D45"/>
		<path d="M128.594 20.3674C130.314 22.048 132.424 22.8883 134.988 22.8883C137.552 22.8883 139.662 22.048 141.382 20.3674C143.102 18.6546 143.946 16.5539 143.946 14.0008C143.946 11.4477 143.102 9.34698 141.382 7.66644C139.662 5.95358 137.552 5.11331 134.988 5.11331C132.424 5.11331 130.314 5.95358 128.594 7.66644C126.906 9.34698 126.062 11.4477 126.062 14.0008C126.062 16.5539 126.906 18.6546 128.594 20.3674ZM131.612 10.5427C132.521 9.60552 133.657 9.15307 134.988 9.15307C136.319 9.15307 137.455 9.60552 138.363 10.5427C139.272 11.48 139.727 12.6111 139.727 14.0008C139.727 15.3905 139.272 16.5216 138.363 17.4588C137.455 18.396 136.319 18.8485 134.988 18.8485C133.657 18.8485 132.521 18.396 131.612 17.4588C130.703 16.5216 130.249 15.3905 130.249 14.0008C130.249 12.6111 130.703 11.48 131.612 10.5427Z" fill="#171D45"/>
	</symbol>
	<symbol id="burger" viewBox="0 0 24 24">
		<path fill-rule="evenodd" clip-rule="evenodd" d="M3 7C3 6.448 3.448 6 4 6C4.552 6 5 6.448 5 7C5 7.552 4.552 8 4 8C3.448 8 3 7.552 3 7ZM3 12C3 11.448 3.448 11 4 11C4.552 11 5 11.448 5 12C5 12.552 4.552 13 4 13C3.448 13 3 12.552 3 12ZM4 16C3.448 16 3 16.448 3 17C3 17.552 3.448 18 4 18C4.552 18 5 17.552 5 17C5 16.448 4.552 16 4 16ZM7.9355 11H20.0645C20.5795 11 21.0005 11.421 21.0005 11.936V12.064C21.0005 12.579 20.5795 13 20.0645 13H7.9355C7.4205 13 7.0005 12.579 7.0005 12.064V11.936C7.0005 11.421 7.4205 11 7.9355 11ZM20.0645 16H7.9355C7.4205 16 7.0005 16.421 7.0005 16.936V17.064C7.0005 17.579 7.4205 18 7.9355 18H20.0645C20.5795 18 21.0005 17.579 21.0005 17.064V16.936C21.0005 16.421 20.5795 16 20.0645 16ZM7.9355 6H20.0645C20.5795 6 21.0005 6.421 21.0005 6.936V7.064C21.0005 7.579 20.5795 8 20.0645 8H7.9355C7.4205 8 7.0005 7.579 7.0005 7.064V6.936C7.0005 6.421 7.4205 6 7.9355 6Z" />
	</symbol>		
	<symbol id="close" viewBox="0 0 24 24">
		<path fill-rule="evenodd" clip-rule="evenodd" d="M13.4141 12L17.7071 7.70701C18.0981 7.31601 18.0981 6.68401 17.7071 6.29301C17.3161 5.90201 16.6841 5.90201 16.2931 6.29301L12.0001 10.586L7.70713 6.29301C7.31613 5.90201 6.68413 5.90201 6.29313 6.29301C5.90213 6.68401 5.90213 7.31601 6.29313 7.70701L10.5861 12L6.29313 16.293C5.90213 16.684 5.90213 17.316 6.29313 17.707C6.48813 17.902 6.74413 18 7.00013 18C7.25613 18 7.51213 17.902 7.70713 17.707L12.0001 13.414L16.2931 17.707C16.4881 17.902 16.7441 18 17.0001 18C17.2561 18 17.5121 17.902 17.7071 17.707C18.0981 17.316 18.0981 16.684 17.7071 16.293L13.4141 12Z"/>
	</symbol>
	<symbol id="search" viewBox="0 0 24 24">
		<path fill-rule="evenodd" clip-rule="evenodd" d="M5 11C5 7.691 7.691 5 11 5C14.309 5 17 7.691 17 11C17 14.309 14.309 17 11 17C7.691 17 5 14.309 5 11ZM20.707 19.293L17.312 15.897C18.365 14.543 19 12.846 19 11C19 6.589 15.411 3 11 3C6.589 3 3 6.589 3 11C3 15.411 6.589 19 11 19C12.846 19 14.543 18.365 15.897 17.312L19.293 20.707C19.488 20.902 19.744 21 20 21C20.256 21 20.512 20.902 20.707 20.707C21.098 20.316 21.098 19.684 20.707 19.293Z" />
	</symbol>
	<symbol id="favorites" viewBox="24 16 32 32">
		<path id="path"
		stroke-width="2" fill-rule="evenodd" clip-rule="evenodd" d="M35.9997 37.8584C35.7347 37.8584 35.4797 37.7534 35.2927 37.5644L27.5247 29.7844C25.4887 27.7444 25.4887 24.4254 27.5247 22.3854C28.5087 21.4014 29.8207 20.8584 31.2197 20.8584C32.6187 20.8584 33.9317 21.4014 34.9147 22.3854L35.9997 23.4724L37.0847 22.3864C38.0687 21.4014 39.3807 20.8584 40.7807 20.8584C42.1787 20.8584 43.4917 21.4014 44.4747 22.3854C46.5117 24.4254 46.5117 27.7444 44.4757 29.7844L36.7077 37.5654C36.5197 37.7534 36.2657 37.8584 35.9997 37.8584Z" />
	</symbol>
	<symbol id="bell" viewBox="0 0 32 32">
		<path fill-rule="evenodd" clip-rule="evenodd" d="M7.3528 21.3334L8.92614 19.7574C9.43014 19.2534 9.70747 18.584 9.70747 17.872V11.636C9.70747 9.82669 10.4941 8.09736 11.8675 6.89469C13.2515 5.68136 15.0141 5.14802 16.8501 5.38936C19.9528 5.80136 22.2928 8.60669 22.2928 11.916V17.872C22.2928 18.584 22.5701 19.2534 23.0728 19.756L24.6475 21.3334H7.3528ZM18.6661 24.4547C18.6661 25.6534 17.4448 26.6667 15.9995 26.6667C14.5541 26.6667 13.3328 25.6534 13.3328 24.4547V24H18.6661V24.4547ZM27.3608 20.2774L24.9595 17.872V11.916C24.9595 7.27469 21.6235 3.33202 17.1995 2.74669C14.6368 2.40536 12.0501 3.18802 10.1101 4.88935C8.15814 6.59869 7.0408 9.05735 7.0408 11.636L7.03947 17.872L4.63814 20.2774C4.0128 20.904 3.82747 21.836 4.16614 22.6534C4.50614 23.472 5.2968 24 6.18214 24H10.6661V24.4547C10.6661 27.1454 13.0581 29.3334 15.9995 29.3334C18.9408 29.3334 21.3328 27.1454 21.3328 24.4547V24H25.8168C26.7021 24 27.4915 23.472 27.8301 22.6547C28.1701 21.836 27.9861 20.9027 27.3608 20.2774Z" />
	</symbol>
	<symbol id="basket" viewBox="0 0 24 24">
		<path fill-rule="evenodd" clip-rule="evenodd" d="M16.3818 14H8.76379L7.12679 8H19.3818L16.3818 14ZM21.0828 6.948C20.7158 6.354 20.0798 6 19.3818 6H6.58179L5.96479 3.737C5.84579 3.302 5.45079 3 4.99979 3H2.99979C2.44679 3 1.99979 3.448 1.99979 4C1.99979 4.552 2.44679 5 2.99979 5H4.23579L7.03479 15.263C7.15379 15.698 7.54879 16 7.99979 16H16.9998C17.3788 16 17.7248 15.786 17.8948 15.447L21.1708 8.894C21.4838 8.269 21.4498 7.542 21.0828 6.948ZM7.49999 18C6.67199 18 5.99999 18.671 5.99999 19.5C5.99999 20.329 6.67199 21 7.49999 21C8.32799 21 8.99999 20.329 8.99999 19.5C8.99999 18.671 8.32799 18 7.49999 18ZM16 19.5C16 18.671 16.672 18 17.5 18C18.328 18 19 18.671 19 19.5C19 20.329 18.328 21 17.5 21C16.672 21 16 20.329 16 19.5Z" />
	</symbol>
	<symbol id="row" viewBox="0 0 24 24">
		<path fill-rule="evenodd" clip-rule="evenodd" d="M12 15.5C11.744 15.5 11.488 15.402 11.293 15.207L7.29301 11.207C6.90201 10.816 6.90201 10.184 7.29301 9.79301C7.68401 9.40201 8.31601 9.40201 8.70701 9.79301L12.012 13.098L15.305 9.91801C15.704 9.53501 16.335 9.54601 16.719 9.94301C17.103 10.34 17.092 10.974 16.695 11.357L12.695 15.219C12.5 15.407 12.25 15.5 12 15.5Z" />
	</symbol>
	<symbol id="message" viewBox="0 0 16 16">
		<path fill-rule="evenodd" clip-rule="evenodd" d="M4.66672 7.33287C4.66672 6.96487 4.96539 6.6662 5.33339 6.6662C5.70139 6.6662 6.00005 6.96487 6.00005 7.33287C6.00005 7.70087 5.70139 7.99953 5.33339 7.99953C4.96539 7.99953 4.66672 7.70087 4.66672 7.33287ZM8.00005 6.6662C7.63205 6.6662 7.33339 6.96487 7.33339 7.33287C7.33339 7.70087 7.63205 7.99953 8.00005 7.99953C8.36805 7.99953 8.66672 7.70087 8.66672 7.33287C8.66672 6.96487 8.36805 6.6662 8.00005 6.6662ZM10.6667 6.6662C10.2987 6.6662 10.0001 6.96487 10.0001 7.33287C10.0001 7.70087 10.2987 7.99953 10.6667 7.99953C11.0347 7.99953 11.3334 7.70087 11.3334 7.33287C11.3334 6.96487 11.0347 6.6662 10.6667 6.6662ZM13.2657 8.19613C12.9277 10.3655 11.179 12.1648 9.01299 12.5708C7.96699 12.7681 6.90165 12.6555 5.93499 12.2461C5.66099 12.1301 5.37765 12.0715 5.09965 12.0715C4.97299 12.0715 4.84765 12.0835 4.72432 12.1081L2.84965 12.4828L3.22499 10.6048C3.30365 10.2148 3.25565 9.79747 3.08699 9.39814C2.67765 8.43147 2.56565 7.3668 2.76232 6.32013C3.16832 4.15413 4.96699 2.40547 7.13699 2.06747C8.86365 1.7988 10.5523 2.3428 11.771 3.56147C12.9903 4.7808 13.535 6.47013 13.2657 8.19613ZM12.7143 2.6188C11.191 1.09613 9.08432 0.416801 6.93165 0.749468C4.21365 1.17347 1.96032 3.3628 1.45165 6.07413C1.20632 7.37947 1.34765 8.7088 1.85899 9.91747C1.92365 10.0715 1.94365 10.2148 1.91832 10.3435L1.34632 13.2021C1.30232 13.4208 1.37099 13.6468 1.52899 13.8041C1.65499 13.9308 1.82499 13.9995 2.00032 13.9995C2.04365 13.9995 2.08699 13.9955 2.13099 13.9868L4.98632 13.4155C5.15032 13.3841 5.30899 13.4301 5.41499 13.4741C6.62499 13.9855 7.95432 14.1261 9.25832 13.8815C11.9703 13.3728 14.1597 11.1195 14.5837 8.40147C14.9183 6.25013 14.2377 4.14213 12.7143 2.6188Z" />
	</symbol>
	<symbol id="promo" viewBox="0 0 16 16">
		<path fill-rule="evenodd" clip-rule="evenodd" d="M13.1598 2.84044C12.9285 2.60844 12.5532 2.60844 12.3218 2.84044L2.8405 12.3218C2.7245 12.4378 2.6665 12.5891 2.6665 12.7411C2.6665 12.8924 2.7245 13.0444 2.8405 13.1598C3.07184 13.3911 3.4465 13.3911 3.6785 13.1598L13.1598 3.67844C13.3912 3.44644 13.3912 3.07178 13.1598 2.84044ZM10.6667 12.6666C10.1154 12.6666 9.6667 12.218 9.6667 11.6666C9.6667 11.1153 10.1154 10.6666 10.6667 10.6666C11.218 10.6666 11.6667 11.1153 11.6667 11.6666C11.6667 12.218 11.218 12.6666 10.6667 12.6666ZM10.6667 9.33331C9.38004 9.33331 8.33337 10.38 8.33337 11.6666C8.33337 12.9533 9.38004 14 10.6667 14C11.9534 14 13 12.9533 13 11.6666C13 10.38 11.9534 9.33331 10.6667 9.33331ZM5.33337 3.99998C5.8847 3.99998 6.33337 4.44864 6.33337 4.99998C6.33337 5.55131 5.8847 5.99998 5.33337 5.99998C4.78204 5.99998 4.33337 5.55131 4.33337 4.99998C4.33337 4.44864 4.78204 3.99998 5.33337 3.99998ZM5.33337 7.33331C6.62004 7.33331 7.6667 6.28664 7.6667 4.99998C7.6667 3.71331 6.62004 2.66664 5.33337 2.66664C4.0467 2.66664 3.00004 3.71331 3.00004 4.99998C3.00004 6.28664 4.0467 7.33331 5.33337 7.33331Z" />
	</symbol>
	<symbol id="next" viewBox="0 0 32 32">
		<path fill-rule="evenodd" clip-rule="evenodd" d="M13.3327 25.3333C13.0313 25.3333 12.7287 25.232 12.4793 25.024C11.914 24.5533 11.838 23.712 12.3087 23.1467L18.2767 15.9853L12.5233 8.83601C12.062 8.26267 12.1527 7.42267 12.726 6.96134C13.3007 6.50001 14.1393 6.59067 14.602 7.16401L21.0393 15.164C21.4367 15.6587 21.4313 16.3653 21.0247 16.8533L14.358 24.8533C14.094 25.1693 13.7153 25.3333 13.3327 25.3333Z"/>
	</symbol> 
	<symbol id="increment" viewBox="0 0 24 24">
		<path fill-rule="evenodd" clip-rule="evenodd" d="M19 11H13V5C13 4.447 12.552 4 12 4C11.448 4 11 4.447 11 5V11H5C4.448 11 4 11.447 4 12C4 12.553 4.448 13 5 13H11V19C11 19.553 11.448 20 12 20C12.552 20 13 19.553 13 19V13H19C19.552 13 20 12.553 20 12C20 11.447 19.552 11 19 11Z"/>
	</symbol> 
	<symbol id="decrement" viewBox="0 0 24 24">
		<path fill-rule="evenodd" clip-rule="evenodd" d="M19 13H5C4.448 13 4 12.553 4 12C4 11.447 4.448 11 5 11H19C19.553 11 20 11.447 20 12C20 12.553 19.553 13 19 13Z" />
	</symbol> 
</svg>