<svg width="72" height="57" viewBox="0 0 72 57" fill="none" xmlns="http://www.w3.org/2000/svg">
<mask id="mask0_6_4390" style="mask-type:alpha" maskUnits="userSpaceOnUse" x="24" y="16" width="24" height="25">
<path fill-rule="evenodd" clip-rule="evenodd" d="M35.9997 37.8584C35.7347 37.8584 35.4797 37.7534 35.2927 37.5644L27.5247 29.7844C25.4887 27.7444 25.4887 24.4254 27.5247 22.3854C28.5087 21.4014 29.8207 20.8584 31.2197 20.8584C32.6187 20.8584 33.9317 21.4014 34.9147 22.3854L35.9997 23.4724L37.0847 22.3864C38.0687 21.4014 39.3807 20.8584 40.7807 20.8584C42.1787 20.8584 43.4917 21.4014 44.4747 22.3854C46.5117 24.4254 46.5117 27.7444 44.4757 29.7844L36.7077 37.5654C36.5197 37.7534 36.2657 37.8584 35.9997 37.8584Z"  stroke="#FF3D71"/>
</mask>
<g mask="url(#mask0_6_4390)">
<rect width="24" height="24" transform="translate(24 16.8584)"  fill="#FF3D71"/>
</g>
</svg>
